<?xml version="1.0" encoding="utf-8"?>

<svg id="Layer_1" data-name="Layer 1" xmlns="http://www.w3.org/2000/svg" viewBox="0 0 414.38 583.35">
  <title>logopassport</title>
  <path d="M74.7,599.67H384.49a52.36,52.36,0,0,0,52.3-52.3V68.62a52.36,52.36,0,0,0-52.3-52.3H74.7a52.36,52.36,0,0,0-52.3,52.3V547.37A52.36,52.36,0,0,0,74.7,599.67ZM46.54,68.62A28.2,28.2,0,0,1,74.7,40.46H384.49a28.2,28.2,0,0,1,28.16,28.16V547.37a28.2,28.2,0,0,1-28.16,28.16H74.7a28.2,28.2,0,0,1-28.16-28.16Z" transform="translate(-22.4 -16.32)" style="fill: #3a6188"/>
  <path d="M229.59,356.27c78.75,0,142.82-64.07,142.82-142.82S308.34,70.63,229.59,70.63,86.77,134.7,86.77,213.45,150.85,356.27,229.59,356.27ZM133.71,143.8a268.48,268.48,0,0,0,34.54,16.78,237.32,237.32,0,0,0-5.54,40.8H111.52A117.87,117.87,0,0,1,133.71,143.8Zm95.57-49A11.94,11.94,0,0,0,230,96c.35.46,15.1,20.47,25.78,52.87-16,2.64-35.67,2.39-58.91-4a206.88,206.88,0,0,1,23.94-49.66C223.64,95,226.44,94.79,229.28,94.78Zm30.84,4.11a118.38,118.38,0,0,1,47.65,25.49c-.13.12-.3.16-.42.29-.93,1-10.52,10.6-28.43,17.82A253.07,253.07,0,0,0,260.12,98.89Zm87.55,126.63a117.91,117.91,0,0,1-23.47,59.29,154.13,154.13,0,0,0-39.27-18.7,222.76,222.76,0,0,0,5.58-40.59ZM229.59,332.13c-2,0-3.89-.2-5.84-.3,0-.07-.07-.15-.11-.22a248.29,248.29,0,0,1-23-44.57c16.27-3.26,34.69-4.87,53.69-2.59a234.6,234.6,0,0,1-23.88,47.64C230.18,332.09,229.89,332.13,229.59,332.13Zm-37.22-6.07A118.55,118.55,0,0,1,151.9,303a227,227,0,0,1,25.31-9.8A259.17,259.17,0,0,0,192.38,326.07Zm85.8-36.61a127.71,127.71,0,0,1,29.35,13.29,118.38,118.38,0,0,1-46.43,25A249.38,249.38,0,0,0,278.18,289.45Zm-16.79-28.73c-24.55-3.67-48.12-1.47-68.43,2.93a204.54,204.54,0,0,1-6.38-38.13h79.81A200.42,200.42,0,0,1,261.39,260.73Zm-75.14-59.35a207.1,207.1,0,0,1,4.33-33.14,170.41,170.41,0,0,0,45.65,6.56,141.14,141.14,0,0,0,25.93-2.41,209.54,209.54,0,0,1,4.05,29Zm-11.53-64.17a241.48,241.48,0,0,1-24.42-11.81,118.6,118.6,0,0,1,39-23.46A254.66,254.66,0,0,0,174.72,137.22Zm-11.87,88.3a227.24,227.24,0,0,0,7,44.36,239.15,239.15,0,0,0-35.18,14.53,117.89,117.89,0,0,1-23.16-58.89Zm184.82-24.14H290.31a234.48,234.48,0,0,0-5.05-35.45c22.37-8.55,35.59-20.63,38.89-23.91A117.92,117.92,0,0,1,347.67,201.38Z" transform="translate(-22.4 -16.32)" style="fill: #3a6188"/>
</svg>

